<svg width="62" height="62" viewBox="0 0 62 62" fill="none" xmlns="http://www.w3.org/2000/svg">
<path d="M37.4138 25.6552L50.2414 25.6552L54.5173 38.4828L54.5173 48.1035H49.0655" stroke="#F2C66D" stroke-width="2.56552" stroke-miterlimit="10"/>
<path d="M38.5896 48.1035H24.5615" stroke="#F2C66D" stroke-width="2.56552" stroke-miterlimit="10"/>
<path d="M28.8621 18.1724L37.4138 18.1724L37.4138 39.5517" stroke="#F2C66D" stroke-width="2.56552" stroke-miterlimit="10"/>
<path d="M12.8275 48.1034H7.48267L7.48267 31" stroke="#F2C66D" stroke-width="2.56552" stroke-miterlimit="10"/>
<path d="M18.7069 54.5172C21.954 54.5172 24.5863 51.885 24.5863 48.6379C24.5863 45.3909 21.954 42.7586 18.7069 42.7586C15.4599 42.7586 12.8276 45.3909 12.8276 48.6379C12.8276 51.885 15.4599 54.5172 18.7069 54.5172Z" stroke="#F2C66D" stroke-width="2.56552" stroke-miterlimit="10" stroke-linecap="square"/>
<path d="M43.8275 54.5172C46.7794 54.5172 49.1723 52.1243 49.1723 49.1724C49.1723 46.2205 46.7794 43.8276 43.8275 43.8276C40.8756 43.8276 38.4827 46.2205 38.4827 49.1724C38.4827 52.1243 40.8756 54.5172 43.8275 54.5172Z" stroke="#F2C66D" stroke-width="2.56552" stroke-miterlimit="10" stroke-linecap="square"/>
<path d="M18.1723 28.8621C24.0761 28.8621 28.862 24.0761 28.862 18.1724C28.862 12.2687 24.0761 7.48276 18.1723 7.48276C12.2686 7.48276 7.48267 12.2687 7.48267 18.1724C7.48267 24.0761 12.2686 28.8621 18.1723 28.8621Z" stroke="#F2C66D" stroke-width="2.56552" stroke-miterlimit="10" stroke-linecap="square"/>
<path d="M18.1724 13.8965V18.1724H22.4482" stroke="#F2C66D" stroke-width="2.56552" stroke-miterlimit="10" stroke-linecap="square"/>
</svg>
