<svg width="20" height="20" viewBox="0 0 20 20" fill="none" xmlns="http://www.w3.org/2000/svg">
<path d="M19.6 9.99998C19.5997 8.16544 19.0738 6.36939 18.0845 4.82446C17.0952 3.27954 15.6839 2.05043 14.0177 1.28266C12.3516 0.514883 10.5003 0.24059 8.6831 0.492251C6.8659 0.743912 5.15886 1.51099 3.76407 2.70267C2.36927 3.89435 1.34514 5.46073 0.812908 7.21638C0.280676 8.97202 0.262636 10.8434 0.760922 12.609C1.25921 14.3746 2.25295 15.9604 3.62452 17.1787C4.99608 18.3971 6.68801 19.1969 8.50002 19.4836L8.50002 12.775H6.06282V9.99998H8.50002V7.88498C8.50002 5.47898 9.93342 4.14998 12.1258 4.14998C12.8458 4.15997 13.5641 4.22254 14.275 4.33718V6.69998L13.0642 6.69998C12.8579 6.67258 12.648 6.69196 12.4502 6.75668C12.2524 6.82141 12.0717 6.92982 11.9215 7.07388C11.7712 7.21794 11.6553 7.39396 11.5824 7.5889C11.5094 7.78383 11.4813 7.99269 11.5 8.19998V9.99998H14.1628L13.7368 12.775H11.5L11.5 19.4836C13.7583 19.1263 15.8149 17.9748 17.2998 16.2363C18.7847 14.4978 19.6004 12.2863 19.6 9.99998Z" fill="white"/>
</svg>
