<!DOCTYPE svg PUBLIC "-//W3C//DTD SVG 1.1//EN" "http://www.w3.org/Graphics/SVG/1.1/DTD/svg11.dtd">
<!-- Uploaded to: SVG Repo, www.svgrepo.com, Transformed by: SVG Repo Mixer Tools -->
<svg width="71px" height="71px" viewBox="0 0 24.00 24.00" id="Layer_1" data-name="Layer 1" xmlns="http://www.w3.org/2000/svg" fill="#f3d258" stroke="#f3d258">
<g id="SVGRepo_bgCarrier" stroke-width="0"/>
<g id="SVGRepo_tracerCarrier" stroke-linecap="round" stroke-linejoin="round" stroke="#CCCCCC" stroke-width="0.048"/>
<g id="SVGRepo_iconCarrier">
<defs>
<style>.cls-1{fill:f3d258;}.cls-2{fill:none;stroke:f3d258;stroke-miterlimit:10;stroke-width:1.91px;}</style>
</defs>
<path class="cls-1" d="M16.44,9.56a2.36,2.36,0,0,0-4.33-1.3,2.35,2.35,0,0,0-4.32,1.3c0,2.75,4.32,4.33,4.32,4.33S16.44,12.31,16.44,9.56Z"/>
<path class="cls-2" d="M18.68,1.48H5.32A3.82,3.82,0,0,0,1.5,5.3v9.54a3.82,3.82,0,0,0,3.82,3.82H9.14L12,21.52l2.86-2.86h3.82a3.82,3.82,0,0,0,3.82-3.82V5.3A3.82,3.82,0,0,0,18.68,1.48Z"/>
</g>
</svg>