<svg width="24" height="24" viewBox="0 0 24 24" fill="none" xmlns="http://www.w3.org/2000/svg">
<path d="M21.6001 6.06001C20.8801 6.36001 20.1601 6.60001 19.3201 6.66001C20.1601 6.18001 20.7601 5.40001 21.0601 4.50001C20.2801 4.98001 19.4401 5.28001 18.5401 5.46001C17.8201 4.68001 16.8001 4.20001 15.7201 4.20001C13.5601 4.20001 11.7601 5.94001 11.7601 8.16001C11.7601 8.46001 11.8201 8.76001 11.8801 9.06001C8.58009 8.88001 5.70009 7.32001 3.72009 4.92001C3.36009 5.52001 3.18009 6.18001 3.18009 6.90001C3.18009 8.28001 3.90009 9.48001 4.92009 10.2C4.26009 10.2 3.66009 10.02 3.12009 9.72001V9.78001C3.12009 11.7 4.50009 13.26 6.30009 13.62C5.94009 13.68 5.64009 13.74 5.28009 13.74C5.04009 13.74 4.80009 13.74 4.56009 13.68C5.04009 15.24 6.54009 16.38 8.22009 16.44C6.90009 17.52 5.16009 18.12 3.30009 18.12C3.00009 18.12 2.64009 18.12 2.34009 18.06C4.14009 19.14 6.24009 19.8 8.46009 19.8C15.7201 19.8 19.6801 13.8 19.6801 8.58001C19.6801 8.40001 19.6801 8.22001 19.6801 8.10001C20.4001 7.50001 21.0601 6.84001 21.6001 6.06001Z" fill="white"/>
</svg>
