<svg width="55" height="28" viewBox="0 0 55 28" fill="none" xmlns="http://www.w3.org/2000/svg">
<rect width="55" height="28" rx="14" fill="#FEF9EE"/>
<path d="M11.12 20.182V18.814H12.002V20.182H11.12ZM11.12 10.54V9.166H12.002V10.54H11.12ZM11.666 19.18C11.094 19.18 10.578 19.078 10.118 18.874C9.662 18.67 9.284 18.382 8.984 18.01C8.688 17.638 8.494 17.198 8.402 16.69L9.26 16.54C9.392 17.092 9.676 17.53 10.112 17.854C10.552 18.174 11.082 18.334 11.702 18.334C12.33 18.334 12.838 18.182 13.226 17.878C13.614 17.57 13.808 17.168 13.808 16.672C13.808 16.304 13.7 16.01 13.484 15.79C13.268 15.57 12.902 15.382 12.386 15.226L10.466 14.626C9.306 14.262 8.726 13.574 8.726 12.562C8.726 12.09 8.842 11.676 9.074 11.32C9.31 10.96 9.636 10.68 10.052 10.48C10.472 10.28 10.962 10.182 11.522 10.186C12.07 10.186 12.56 10.29 12.992 10.498C13.428 10.702 13.786 10.992 14.066 11.368C14.346 11.744 14.532 12.19 14.624 12.706L13.742 12.874C13.686 12.506 13.556 12.184 13.352 11.908C13.152 11.632 12.894 11.418 12.578 11.266C12.262 11.11 11.91 11.03 11.522 11.026C11.154 11.026 10.826 11.09 10.538 11.218C10.25 11.346 10.022 11.524 9.854 11.752C9.69 11.976 9.608 12.234 9.608 12.526C9.608 12.846 9.722 13.118 9.95 13.342C10.182 13.562 10.548 13.748 11.048 13.9L12.698 14.398C13.394 14.606 13.896 14.886 14.204 15.238C14.512 15.59 14.666 16.06 14.666 16.648C14.666 17.156 14.542 17.6 14.294 17.98C14.046 18.36 13.696 18.656 13.244 18.868C12.796 19.076 12.27 19.18 11.666 19.18ZM17.4124 19V11.344L15.7864 12.322V11.332L17.4124 10.36H18.3064V19H17.4124ZM23.1322 19.18C22.6842 19.18 22.2702 19.088 21.8902 18.904C21.5102 18.72 21.1862 18.466 20.9182 18.142C20.6502 17.818 20.4582 17.446 20.3422 17.026L21.1882 16.798C21.2642 17.11 21.4022 17.38 21.6022 17.608C21.8022 17.832 22.0362 18.006 22.3042 18.13C22.5762 18.254 22.8602 18.316 23.1562 18.316C23.5402 18.316 23.8842 18.224 24.1882 18.04C24.4962 17.852 24.7402 17.604 24.9202 17.296C25.1002 16.988 25.1902 16.65 25.1902 16.282C25.1902 15.902 25.0962 15.56 24.9082 15.256C24.7202 14.948 24.4722 14.704 24.1642 14.524C23.8562 14.344 23.5202 14.254 23.1562 14.254C22.7482 14.254 22.3962 14.344 22.1002 14.524C21.8042 14.7 21.5682 14.922 21.3922 15.19L20.5882 14.854L20.8522 10.36H25.4662V11.206H21.2422L21.6802 10.792L21.4462 14.626L21.2242 14.332C21.4722 14.048 21.7722 13.826 22.1242 13.666C22.4762 13.506 22.8462 13.426 23.2342 13.426C23.7662 13.426 24.2462 13.554 24.6742 13.81C25.1022 14.062 25.4422 14.404 25.6942 14.836C25.9462 15.268 26.0722 15.75 26.0722 16.282C26.0722 16.81 25.9382 17.294 25.6702 17.734C25.4022 18.17 25.0462 18.52 24.6022 18.784C24.1582 19.048 23.6682 19.18 23.1322 19.18ZM33.4083 19.18C32.5483 19.18 31.8223 18.99 31.2303 18.61C30.6383 18.226 30.1903 17.696 29.8863 17.02C29.5823 16.344 29.4303 15.564 29.4303 14.68C29.4303 13.796 29.5823 13.016 29.8863 12.34C30.1903 11.664 30.6383 11.136 31.2303 10.756C31.8223 10.372 32.5483 10.18 33.4083 10.18C34.2723 10.18 34.9983 10.372 35.5863 10.756C36.1783 11.136 36.6263 11.664 36.9303 12.34C37.2383 13.016 37.3923 13.796 37.3923 14.68C37.3923 15.564 37.2383 16.344 36.9303 17.02C36.6263 17.696 36.1783 18.226 35.5863 18.61C34.9983 18.99 34.2723 19.18 33.4083 19.18ZM33.4083 18.334C34.0843 18.334 34.6483 18.18 35.1003 17.872C35.5523 17.564 35.8903 17.136 36.1143 16.588C36.3423 16.036 36.4563 15.4 36.4563 14.68C36.4563 13.96 36.3423 13.326 36.1143 12.778C35.8903 12.23 35.5523 11.802 35.1003 11.494C34.6483 11.186 34.0843 11.03 33.4083 11.026C32.7323 11.026 32.1703 11.18 31.7223 11.488C31.2743 11.796 30.9363 12.226 30.7083 12.778C30.4843 13.326 30.3703 13.96 30.3663 14.68C30.3623 15.4 30.4723 16.034 30.6963 16.582C30.9243 17.126 31.2643 17.554 31.7163 17.866C32.1683 18.174 32.7323 18.33 33.4083 18.334ZM39.2359 19V12.04C39.2359 11.872 39.2439 11.706 39.2599 11.542C39.2799 11.378 39.3179 11.222 39.3739 11.074C39.4299 10.922 39.5179 10.782 39.6379 10.654C39.7699 10.51 39.9139 10.406 40.0699 10.342C40.2259 10.274 40.3879 10.23 40.5559 10.21C40.7279 10.19 40.8959 10.18 41.0599 10.18H41.8879V10.924H41.1199C40.7839 10.924 40.5319 11.006 40.3639 11.17C40.1999 11.334 40.1179 11.592 40.1179 11.944V19H39.2359ZM38.1139 13.276V12.52H41.8879V13.276H38.1139ZM42.9319 19V12.04C42.9319 11.872 42.9399 11.706 42.9559 11.542C42.9759 11.378 43.0139 11.222 43.0699 11.074C43.1259 10.922 43.2139 10.782 43.3339 10.654C43.4659 10.51 43.6099 10.406 43.7659 10.342C43.9219 10.274 44.0839 10.23 44.2519 10.21C44.4239 10.19 44.5919 10.18 44.7559 10.18H45.5839V10.924H44.8159C44.4799 10.924 44.2279 11.006 44.0599 11.17C43.8959 11.334 43.8139 11.592 43.8139 11.944V19H42.9319ZM41.8099 13.276V12.52H45.5839V13.276H41.8099Z" fill="#8F640C"/>
</svg>
