<svg width="20" height="14" viewBox="0 0 20 14" fill="none" xmlns="http://www.w3.org/2000/svg">
<path d="M19.42 3.15997C19.42 3.15997 19.24 1.83997 18.64 1.23997C17.92 0.459971 17.08 0.459971 16.72 0.399971C14.02 0.219971 10 0.219971 10 0.219971C10 0.219971 5.98002 0.219971 3.28002 0.399971C2.92002 0.459971 2.08002 0.459971 1.36002 1.23997C0.760024 1.83997 0.580024 3.15997 0.580024 3.15997C0.580024 3.15997 0.400024 4.71997 0.400024 6.27997L0.400024 7.71997C0.400024 9.27997 0.580024 10.84 0.580024 10.84C0.580024 10.84 0.760024 12.16 1.36002 12.76C2.08002 13.54 3.04002 13.48 3.46002 13.6C5.02002 13.72 10 13.78 10 13.78C10 13.78 14.02 13.78 16.72 13.6C17.08 13.54 17.92 13.54 18.64 12.76C19.24 12.16 19.42 10.84 19.42 10.84C19.42 10.84 19.6 9.27997 19.6 7.71997L19.6 6.27997C19.6 4.71997 19.42 3.15997 19.42 3.15997ZM8.02002 9.51997L8.02002 4.11997L13.18 6.81997L8.02002 9.51997Z" fill="white"/>
</svg>
